<svg width="16" height="24" viewBox="0 0 16 24" fill="none" xmlns="http://www.w3.org/2000/svg">
<g clip-path="url(#clip0_144_7799)">
<path d="M0.666667 6.00024H15.3333C15.5101 6.00024 15.6797 5.89488 15.8047 5.70735C15.9298 5.51981 16 5.26546 16 5.00024C16 4.73503 15.9298 4.48067 15.8047 4.29314C15.6797 4.1056 15.5101 4.00024 15.3333 4.00024H0.666667C0.489856 4.00024 0.320286 4.1056 0.195262 4.29314C0.0702379 4.48067 0 4.73503 0 5.00024C0 5.26546 0.0702379 5.51981 0.195262 5.70735C0.320286 5.89488 0.489856 6.00024 0.666667 6.00024Z" fill="#374957"/>
<path d="M0.666667 11.0002H10C10.1768 11.0002 10.3464 10.8949 10.4714 10.7073C10.5964 10.5198 10.6667 10.2655 10.6667 10.0002C10.6667 9.73503 10.5964 9.48067 10.4714 9.29314C10.3464 9.1056 10.1768 9.00024 10 9.00024H0.666667C0.489856 9.00024 0.320286 9.1056 0.195262 9.29314C0.0702379 9.48067 0 9.73503 0 10.0002C0 10.2655 0.0702379 10.5198 0.195262 10.7073C0.320286 10.8949 0.489856 11.0002 0.666667 11.0002Z" fill="#374957"/>
<path d="M15.3333 14.0003H0.666667C0.489856 14.0003 0.320286 14.1056 0.195262 14.2932C0.0702379 14.4807 0 14.7351 0 15.0003C0 15.2655 0.0702379 15.5199 0.195262 15.7074C0.320286 15.8949 0.489856 16.0003 0.666667 16.0003H15.3333C15.5101 16.0003 15.6797 15.8949 15.8047 15.7074C15.9298 15.5199 16 15.2655 16 15.0003C16 14.7351 15.9298 14.4807 15.8047 14.2932C15.6797 14.1056 15.5101 14.0003 15.3333 14.0003Z" fill="#374957"/>
</g>
<defs>
<clipPath id="clip0_144_7799">
<rect width="16" height="24" fill="white" transform="translate(0 0.000244141)"/>
</clipPath>
</defs>
</svg>
