<svg width="24" height="25" viewBox="0 0 24 25" fill="none" xmlns="http://www.w3.org/2000/svg">
<path fill-rule="evenodd" clip-rule="evenodd" d="M7 3.93335C4.79086 3.93335 3 5.72421 3 7.93335V17.9333C3 20.1425 4.79086 21.9333 7 21.9333H17C19.2091 21.9333 21 20.1425 21 17.9333V7.93335C21 5.72421 19.2091 3.93335 17 3.93335H7ZM12 9.43335C12.5523 9.43335 13 9.88106 13 10.4333V11.9333H14.5C15.0523 11.9333 15.5 12.3811 15.5 12.9333C15.5 13.4856 15.0523 13.9333 14.5 13.9333H13V15.4333C13 15.9856 12.5523 16.4333 12 16.4333C11.4477 16.4333 11 15.9856 11 15.4333V13.9333H9.5C8.94772 13.9333 8.5 13.4856 8.5 12.9333C8.5 12.3811 8.94772 11.9333 9.5 11.9333H11V10.4333C11 9.88106 11.4477 9.43335 12 9.43335Z" fill="#171717"/>
</svg>
